<svg width="24" height="24" viewBox="0 0 24 24" fill="none" xmlns="http://www.w3.org/2000/svg">
<g id="odnoklassniki 1" clip-path="url(#clip0_501_72)">
<path id="Vector" d="M12 13.002C8.416 13.002 5.5 10.086 5.5 6.50195C5.5 2.91795 8.416 0.00195312 12 0.00195312C15.584 0.00195312 18.5 2.91795 18.5 6.50195C18.5 10.086 15.584 13.002 12 13.002ZM12 1.00195C8.968 1.00195 6.5 3.46895 6.5 6.50195C6.5 9.53495 8.968 12.002 12 12.002C15.032 12.002 17.5 9.53495 17.5 6.50195C17.5 3.46895 15.032 1.00195 12 1.00195Z" fill="#515151"/>
<path id="Vector_2" d="M12 10.002C10.07 10.002 8.5 8.43195 8.5 6.50195C8.5 4.57195 10.07 3.00195 12 3.00195C13.93 3.00195 15.5 4.57195 15.5 6.50195C15.5 8.43195 13.93 10.002 12 10.002ZM12 4.00195C10.621 4.00195 9.5 5.12395 9.5 6.50195C9.5 7.87995 10.621 9.00195 12 9.00195C13.379 9.00195 14.5 7.87995 14.5 6.50195C14.5 5.12395 13.379 4.00195 12 4.00195ZM16.5 24.001C16.2374 24.0014 15.9773 23.95 15.7346 23.8496C15.492 23.7492 15.2715 23.6018 15.086 23.416L12 20.221L8.92 23.409C8.64085 23.6897 8.28468 23.8814 7.89656 23.9596C7.50845 24.0379 7.10584 23.9993 6.73969 23.8486C6.37354 23.698 6.0603 23.4421 5.83963 23.1134C5.61895 22.7847 5.50076 22.3979 5.5 22.002C5.5 21.467 5.708 20.965 6.086 20.588L9.107 17.631C8.9244 17.5853 8.74301 17.5349 8.563 17.48C7.52504 17.1543 6.53829 16.6837 5.632 16.082C5.28444 15.8523 4.99916 15.5401 4.80164 15.1733C4.60411 14.8065 4.50048 14.3965 4.5 13.98C4.5 13.262 4.88 12.644 5.516 12.325C5.83409 12.166 6.19035 12.0994 6.54437 12.1326C6.8984 12.1659 7.23604 12.2976 7.519 12.513C10.124 14.461 13.876 14.461 16.482 12.513C16.7651 12.2978 17.1027 12.1662 17.4567 12.133C17.8106 12.0998 18.1669 12.1663 18.485 12.325C18.7938 12.4762 19.0532 12.712 19.2331 13.005C19.413 13.2981 19.5059 13.6362 19.501 13.98C19.501 14.825 19.077 15.611 18.368 16.082C17.4627 16.6833 16.477 17.1537 15.44 17.479C15.263 17.534 15.081 17.584 14.893 17.631L17.911 20.584C18.293 20.965 18.501 21.467 18.501 22.002C18.5013 22.2647 18.4497 22.5249 18.3492 22.7677C18.2487 23.0105 18.1013 23.2311 17.9154 23.4168C17.7295 23.6025 17.5088 23.7497 17.2659 23.8499C17.023 23.9501 16.7628 24.0015 16.5 24.001ZM12 19.002C12.136 19.002 12.266 19.057 12.359 19.155L15.798 22.716C16.165 23.081 16.827 23.088 17.206 22.71C17.2992 22.6173 17.3731 22.5071 17.4236 22.3858C17.4741 22.2645 17.5 22.1344 17.5 22.003C17.5 21.8715 17.4741 21.7414 17.4236 21.6201C17.3731 21.4988 17.2992 21.3886 17.206 21.296L13.523 17.693C13.4565 17.6288 13.4091 17.5475 13.3862 17.458C13.3632 17.3685 13.3657 17.2744 13.3932 17.1862C13.4207 17.098 13.4722 17.0191 13.5419 16.9585C13.6116 16.8979 13.6968 16.8579 13.788 16.843C14.268 16.76 14.725 16.653 15.142 16.525C16.0878 16.2276 16.987 15.7984 17.813 15.25C18.242 14.965 18.499 14.491 18.499 13.981C18.5027 13.823 18.4609 13.6673 18.3786 13.5324C18.2964 13.3975 18.1771 13.2891 18.035 13.22C17.8832 13.1439 17.7129 13.1124 17.5439 13.1291C17.3749 13.1457 17.2141 13.2098 17.08 13.314C15.602 14.418 13.846 15.002 11.999 15.002C10.152 15.002 8.395 14.419 6.918 13.314C6.784 13.2096 6.62315 13.1453 6.45411 13.1287C6.28507 13.1121 6.11478 13.1437 5.963 13.22C5.82109 13.2889 5.702 13.3972 5.61992 13.532C5.53783 13.6667 5.4962 13.8222 5.5 13.98C5.5 14.489 5.757 14.963 6.186 15.249C7.012 15.798 7.913 16.227 8.86 16.525C9.275 16.652 9.731 16.759 10.212 16.842C10.3023 16.8582 10.3865 16.899 10.4553 16.9597C10.5241 17.0205 10.5749 17.099 10.6023 17.1866C10.6296 17.2742 10.6324 17.3677 10.6103 17.4568C10.5882 17.5459 10.5421 17.6272 10.477 17.692L6.79 21.298C6.604 21.484 6.5 21.735 6.5 22.002C6.5 22.269 6.604 22.52 6.793 22.709C6.98337 22.891 7.23661 22.9926 7.5 22.9926C7.76339 22.9926 8.01663 22.891 8.207 22.709L11.641 19.155C11.6873 19.1064 11.743 19.0678 11.8048 19.0415C11.8665 19.0152 11.9329 19.0017 12 19.002Z" fill="#515151"/>
</g>
<defs>
<clipPath id="clip0_501_72">
<rect width="24" height="24" fill="white"/>
</clipPath>
</defs>
</svg>
