<svg width="24" height="24" viewBox="0 0 24 24" fill="none" xmlns="http://www.w3.org/2000/svg">
<g id="ph:telegram-logo-light">
<path id="Vector" d="M21.5634 2.62155C21.3822 2.46459 21.1617 2.35986 20.9255 2.31858C20.6894 2.27729 20.4464 2.30101 20.2227 2.38718L2.91648 9.18405C2.65094 9.28693 2.42606 9.47337 2.27578 9.71526C2.12549 9.95715 2.05796 10.2413 2.08336 10.525C2.10876 10.8086 2.22572 11.0763 2.41659 11.2876C2.60746 11.499 2.86189 11.6425 3.14148 11.6966L7.68836 12.6059V18.2497C7.68866 18.5083 7.76535 18.761 7.90879 18.9762C8.05223 19.1913 8.25603 19.3593 8.49461 19.4591C8.65548 19.5246 8.82716 19.5596 9.00086 19.5622C9.17337 19.5632 9.34436 19.5298 9.50375 19.4638C9.66314 19.3977 9.80772 19.3005 9.92898 19.1778L12.4884 16.6184L16.3134 19.9841C16.5503 20.1965 16.8576 20.3134 17.1759 20.3122C17.313 20.3133 17.4493 20.2911 17.579 20.2466C17.7955 20.1777 17.99 20.0531 18.1431 19.8853C18.2961 19.7174 18.4023 19.5122 18.4509 19.2903L21.9852 3.90593C22.038 3.67371 22.0267 3.4315 21.9524 3.20525C21.8781 2.97899 21.7436 2.77722 21.5634 2.62155ZM3.21648 10.4216C3.20993 10.382 3.21764 10.3415 3.23825 10.3071C3.25887 10.2728 3.29103 10.2469 3.32898 10.2341L17.8134 4.54343L8.11961 11.5466L3.36648 10.5903C3.32505 10.5857 3.2868 10.5659 3.2591 10.5347C3.23141 10.5035 3.21622 10.4632 3.21648 10.4216ZM9.13211 18.3809C9.10611 18.4082 9.07214 18.4265 9.03508 18.4332C8.99802 18.44 8.95978 18.4348 8.92586 18.4184C8.8929 18.404 8.86477 18.3805 8.84482 18.3506C8.82487 18.3207 8.81395 18.2856 8.81336 18.2497V13.3841L11.6352 15.8778L9.13211 18.3809ZM17.3634 19.0372C17.3569 19.0697 17.342 19.0999 17.3201 19.1248C17.2982 19.1497 17.2701 19.1683 17.2387 19.1788C17.2072 19.1893 17.1736 19.1912 17.1411 19.1845C17.1087 19.1777 17.0786 19.1625 17.054 19.1403L9.15086 12.1841L20.8696 3.7278L17.3634 19.0372Z" fill="#515151"/>
</g>
</svg>
