<svg width="24" height="24" viewBox="0 0 24 24" fill="none" xmlns="http://www.w3.org/2000/svg">
<g id="&#208;&#152;&#208;&#186;&#208;&#190;&#208;&#189;&#208;&#186;&#208;&#184;">
<path id="Vector" d="M21 4.6875H3C2.85082 4.6875 2.70774 4.74676 2.60225 4.85225C2.49676 4.95774 2.4375 5.10082 2.4375 5.25V18C2.4375 18.3481 2.57578 18.6819 2.82192 18.9281C3.06806 19.1742 3.4019 19.3125 3.75 19.3125H20.25C20.5981 19.3125 20.9319 19.1742 21.1781 18.9281C21.4242 18.6819 21.5625 18.3481 21.5625 18V5.25C21.5625 5.10082 21.5032 4.95774 21.3977 4.85225C21.2923 4.74676 21.1492 4.6875 21 4.6875ZM12 12.7406L4.44375 5.8125H19.5563L12 12.7406ZM9.53437 12L3.5625 17.475V6.525L9.53437 12ZM10.3594 12.7594L11.6156 13.9125C11.7209 14.008 11.8579 14.0609 12 14.0609C12.1421 14.0609 12.2791 14.008 12.3844 13.9125L13.6406 12.7594L19.5563 18.1875H4.44375L10.3594 12.7594ZM14.4656 12L20.4375 6.525V17.475L14.4656 12Z" fill="#212121"/>
</g>
</svg>
