<svg width="24" height="24" viewBox="0 0 24 24" fill="none" xmlns="http://www.w3.org/2000/svg">
<g id="&#208;&#152;&#208;&#186;&#208;&#190;&#208;&#189;&#208;&#186;&#208;&#184;">
<path id="Vector" d="M14.4 3.6091C14.4396 3.4643 14.5345 3.34087 14.6643 3.26545C14.7941 3.19003 14.9483 3.16867 15.0938 3.20597C16.46 3.57321 17.7058 4.2931 18.7062 5.2935C19.7066 6.29391 20.4265 7.53968 20.7938 8.90597C20.8135 8.978 20.8187 9.05325 20.8091 9.12731C20.7994 9.20138 20.7752 9.27279 20.7376 9.33737C20.7001 9.40194 20.6501 9.4584 20.5905 9.50345C20.5309 9.54849 20.463 9.58122 20.3906 9.59972L20.25 9.61847C20.1255 9.61828 20.0045 9.57675 19.9061 9.5004C19.8077 9.42405 19.7374 9.3172 19.7063 9.1966C19.3883 8.02233 18.7684 6.9518 17.9081 6.09157C17.0479 5.23134 15.9774 4.61141 14.8031 4.29347C14.6604 4.25384 14.5386 4.16035 14.4634 4.03269C14.3882 3.90503 14.3655 3.75317 14.4 3.6091ZM14.025 7.19035C14.691 7.37266 15.298 7.7253 15.7862 8.21353C16.2744 8.70177 16.6271 9.30876 16.8094 9.97472C16.8405 10.0953 16.9108 10.2022 17.0092 10.2785C17.1076 10.3549 17.2286 10.3964 17.3531 10.3966L17.4938 10.3778C17.6372 10.3362 17.7592 10.2409 17.8342 10.1117C17.9093 9.98251 17.9317 9.82938 17.8969 9.6841C17.6652 8.82612 17.2126 8.04389 16.5842 7.41549C15.9558 6.78708 15.1736 6.33448 14.3156 6.10285C14.1703 6.068 14.0172 6.09044 13.888 6.16551C13.7589 6.24057 13.6635 6.3625 13.6219 6.50597C13.5848 6.65017 13.6064 6.80319 13.682 6.93147C13.7576 7.05976 13.8809 7.15285 14.025 7.19035ZM21.525 16.3872C21.3678 17.6093 20.7712 18.7324 19.8464 19.5467C18.9217 20.3611 17.7322 20.8109 16.5 20.8122C9.15938 20.8122 3.1875 14.8403 3.1875 7.49972C3.18883 6.26756 3.63866 5.07801 4.45297 4.15328C5.26729 3.22854 6.39039 2.63188 7.6125 2.47472C7.89371 2.4418 8.17803 2.5007 8.42302 2.64263C8.66801 2.78455 8.86054 3.0019 8.97188 3.26222L10.8563 7.6591C10.9417 7.85804 10.977 8.07493 10.959 8.29071C10.9411 8.50649 10.8704 8.71455 10.7531 8.8966L9.1875 11.2778C9.17203 11.3047 9.16311 11.3348 9.16148 11.3658C9.15985 11.3967 9.16556 11.4276 9.17813 11.456C9.89825 12.9325 11.0934 14.1243 12.5719 14.8403C12.6006 14.8532 12.6322 14.8583 12.6635 14.855C12.6948 14.8517 12.7246 14.8402 12.75 14.8216L15.1031 13.256C15.2834 13.1349 15.4912 13.0611 15.7075 13.0414C15.9238 13.0218 16.1415 13.0569 16.3406 13.1435L20.7375 15.0278C20.9978 15.1392 21.2152 15.3317 21.3571 15.5767C21.499 15.8217 21.5579 16.106 21.525 16.3872ZM20.4094 16.2466C20.4126 16.2075 20.4035 16.1684 20.3833 16.1348C20.3631 16.1011 20.3329 16.0747 20.2969 16.0591L15.9 14.1747C15.8709 14.1635 15.8396 14.1594 15.8087 14.1627C15.7777 14.1659 15.748 14.1765 15.7219 14.1935L13.3781 15.7591C13.1884 15.8837 12.9699 15.9578 12.7434 15.9742C12.517 15.9906 12.2901 15.9488 12.0844 15.8528C10.3791 15.0227 8.99989 13.6468 8.16563 11.9435C8.0682 11.7402 8.02478 11.5152 8.03956 11.2902C8.05434 11.0653 8.12681 10.8479 8.25 10.6591L9.80625 8.27785C9.82483 8.25246 9.83635 8.2226 9.83964 8.19131C9.84294 8.16003 9.83788 8.12843 9.825 8.09972L7.94063 3.70285C7.92625 3.66989 7.90269 3.64176 7.87277 3.62181C7.84285 3.60187 7.80783 3.59094 7.77188 3.59035H7.75313C6.8036 3.71516 5.93158 4.18017 5.29886 4.89909C4.66614 5.61801 4.31568 6.54203 4.3125 7.49972C4.31498 10.7313 5.59982 13.8298 7.88488 16.1148C10.1699 18.3999 13.2684 19.6847 16.5 19.6872C17.4577 19.684 18.3817 19.3336 19.1006 18.7009C19.8196 18.0681 20.2846 17.1961 20.4094 16.2466Z" fill="#212121"/>
</g>
</svg>
