<svg width="24" height="24" viewBox="0 0 24 24" fill="none" xmlns="http://www.w3.org/2000/svg">
<g id="vk 1" clip-path="url(#clip0_501_66)">
<path id="Vector" d="M22.57 18.75H20.055C19.162 18.75 18.702 18.245 17.941 17.408C17.634 17.072 17.258 16.658 16.757 16.163C15.753 15.208 15.005 14.7 14.602 14.7C14.544 14.7 14.503 14.702 14.475 14.704C14.427 14.917 14.432 15.502 14.439 16.168C14.442 16.487 14.445 16.856 14.445 17.284C14.445 18.5 13.526 18.75 12.147 18.75C9.188 18.75 6.168 16.971 4.067 13.991C1.025 9.78 0 6.366 0 5.456C0 4.69 0.496 4.251 1.362 4.251H3.878C4.929 4.251 5.258 4.92 5.484 5.546C6.714 9.095 8.519 11.526 9.114 11.829C9.126 11.749 9.137 11.618 9.137 11.407V7.745C9.09 6.892 8.804 6.542 8.552 6.232C8.358 5.995 8.139 5.727 8.139 5.32C8.139 4.805 8.576 4.25 9.28 4.25H13.234C13.786 4.25 14.443 4.496 14.443 5.665V10.588C14.443 10.669 14.451 10.729 14.462 10.772C14.589 10.715 14.787 10.558 15.168 10.182C16.882 8.289 18.136 5.293 18.148 5.263C18.431 4.599 18.968 4.25 19.704 4.25H22.219C22.738 4.25 23.114 4.402 23.336 4.701C23.483 4.898 23.624 5.25 23.458 5.808C23.457 5.811 23.456 5.814 23.455 5.818C23.099 7.28 20.529 10.967 20.008 11.651L20.01 11.652C19.965 11.723 19.847 11.911 19.846 11.961C19.846 11.961 19.852 12.021 19.98 12.183C19.982 12.186 19.985 12.19 19.988 12.193C20.042 12.258 20.197 12.412 20.412 12.629C22.862 15.092 24.4 16.958 23.944 18.054C23.81 18.372 23.465 18.75 22.57 18.75ZM14.603 13.7C15.106 13.7 15.837 13.908 17.455 15.445C17.978 15.962 18.366 16.388 18.682 16.735C19.414 17.539 19.623 17.75 20.057 17.75H22.572C22.879 17.75 23.003 17.689 23.022 17.667C23.093 17.509 23.071 16.721 19.703 13.334C19.44 13.069 19.257 12.878 19.193 12.8C18.636 12.091 18.85 11.62 19.163 11.121C19.187 11.081 19.218 11.046 19.252 11.015C19.649 10.456 22.23 6.749 22.489 5.559C22.494 5.536 22.501 5.513 22.509 5.491C22.544 5.362 22.533 5.303 22.531 5.292H22.53C22.521 5.292 22.441 5.25 22.219 5.25H19.704C19.319 5.25 19.173 5.41 19.07 5.65C19.018 5.775 17.737 8.833 15.889 10.873C15.235 11.521 14.864 11.801 14.344 11.801C13.896 11.801 13.443 11.384 13.443 10.588V5.665C13.443 5.352 13.389 5.273 13.385 5.268C13.383 5.268 13.343 5.25 13.234 5.25H9.279C9.17 5.25 9.14 5.307 9.138 5.322C9.138 5.37 9.229 5.482 9.326 5.6C9.622 5.963 10.07 6.512 10.137 7.717L10.138 11.406C10.138 11.877 10.138 12.856 9.173 12.856C7.749 12.856 5.53 8.731 4.541 5.88C4.324 5.28 4.209 5.251 3.878 5.251H1.362C1 5.251 1 5.307 1 5.456C1 5.857 1.716 9.029 4.881 13.41C6.798 16.13 9.514 17.75 12.148 17.75C13.446 17.75 13.446 17.555 13.446 17.284C13.446 16.86 13.443 16.493 13.44 16.177C13.427 14.821 13.422 14.313 13.761 13.971C13.998 13.733 14.306 13.7 14.603 13.7Z" fill="#515151"/>
</g>
<defs>
<clipPath id="clip0_501_66">
<rect width="24" height="24" fill="white" transform="translate(0 -0.5)"/>
</clipPath>
</defs>
</svg>
